<?xml version="1.0" standalone="no"?>
<!DOCTYPE svg PUBLIC "-//W3C//DTD SVG 20010904//EN"
 "http://www.w3.org/TR/2001/REC-SVG-20010904/DTD/svg10.dtd">
<svg version="1.0" xmlns="http://www.w3.org/2000/svg"
 width="600.000000pt" height="600.000000pt" viewBox="0 0 600.000000 600.000000"
 preserveAspectRatio="xMidYMid meet">
<metadata>
Created by potrace 1.14, written by Peter Selinger 2001-2017
</metadata>
<g transform="translate(0.000000,600.000000) scale(0.100000,-0.100000)"
fill="#000000" stroke="none">
<path d="M2819 5996 c-2 -2 -42 -6 -89 -10 -47 -3 -96 -8 -110 -11 -14 -2 -43
-6 -65 -9 -469 -62 -995 -286 -1385 -589 -189 -147 -402 -359 -530 -527 -19
-25 -38 -49 -43 -55 -40 -49 -136 -194 -200 -303 -35 -60 -162 -319 -172 -352
-4 -14 -11 -29 -15 -35 -13 -17 -100 -294 -125 -400 -22 -93 -44 -208 -60
-315 -31 -214 -26 -655 10 -850 3 -14 10 -53 15 -87 6 -34 12 -68 15 -75 2 -7
7 -25 10 -40 12 -67 18 -88 61 -226 55 -178 74 -225 164 -417 314 -664 913
-1220 1605 -1488 133 -51 340 -115 430 -133 11 -2 43 -8 70 -14 63 -12 99 -18
150 -26 22 -3 51 -8 65 -10 152 -25 685 -24 762 0 7 3 33 7 58 10 44 5 71 10
140 23 42 7 34 6 140 31 445 107 883 334 1245 647 127 109 312 303 395 414 14
18 34 45 46 59 136 178 300 472 387 697 65 168 133 403 153 530 3 22 7 45 8
50 2 6 6 33 10 60 4 28 10 61 12 75 25 154 25 606 0 760 -3 14 -7 43 -10 65
-9 64 -24 146 -36 200 -6 28 -14 60 -16 72 -9 47 -87 292 -121 378 -65 166
-157 347 -256 505 -41 64 -161 234 -181 257 -6 6 -36 42 -66 79 -54 65 -240
257 -314 322 -187 165 -425 322 -669 441 -137 67 -193 90 -322 133 -33 11 -69
23 -80 28 -11 5 -31 11 -45 14 -14 4 -65 17 -115 30 -87 23 -163 40 -235 51
-19 3 -42 8 -50 10 -8 2 -44 7 -80 10 -36 4 -74 9 -85 12 -23 5 -471 14 -476
9z"/>
</g>
</svg>
