<svg width="89" height="89" viewBox="0 0 89 89" fill="none" xmlns="http://www.w3.org/2000/svg">
<rect x="1" y="1" width="87" height="87" stroke="white" stroke-width="2"/>
<path d="M22.1428 41.8672L22.1428 41.8672C22.3644 42.0889 22.6651 42.2135 22.9788 42.2135C23.2923 42.2135 23.5931 42.0888 23.8148 41.8672C23.8149 41.8672 23.8149 41.8671 23.8149 41.8671L29.8617 35.8204C33.6566 32.0253 33.6566 25.85 29.8617 22.055C26.0667 18.26 19.8912 18.26 16.0962 22.055C16.0962 22.055 16.0962 22.055 16.0962 22.055M22.1428 41.8672L15.9194 35.9972C12.0269 32.1046 12.0269 25.771 15.9194 21.8782L16.0962 22.055M22.1428 41.8672L16.0962 35.8204C12.3013 32.0254 12.3013 25.8501 16.0962 22.055M22.1428 41.8672L16.0962 22.055M22.802 39.1824L22.9787 39.3591L23.1555 39.1824L28.1895 34.1484C31.0629 31.275 31.0629 26.6004 28.1895 23.7271L28.1895 23.727C26.7526 22.2904 24.8653 21.5721 22.9788 21.5721C21.0923 21.5721 19.2049 22.2903 17.7682 23.7271C14.8948 26.6004 14.8948 31.275 17.7682 34.1484L22.802 39.1824Z" fill="white" stroke="#8357AA" stroke-width="0.5"/>
<path d="M22.9787 33.2976C20.6093 33.2976 18.6812 31.3697 18.6812 29.0001C18.6812 26.6307 20.6092 24.7026 22.9787 24.7026C23.6318 24.7026 24.1611 25.232 24.1611 25.885C24.1611 26.5381 23.6318 27.0674 22.9787 27.0674C21.9128 27.0674 21.0459 27.9343 21.0459 29.0003C21.0459 30.0663 21.9128 30.9331 22.9787 30.9331C24.0448 30.9331 24.9116 30.0662 24.9116 29.0003C24.9116 28.3472 25.4409 27.8179 26.094 27.8179C26.747 27.8179 27.2764 28.3472 27.2764 29.0003C27.2763 31.3696 25.3482 33.2976 22.9787 33.2976Z" fill="white" stroke="#8357AA" stroke-width="0.5"/>
<path d="M66.1849 68.445L66.185 68.445C66.4157 68.6759 66.7179 68.7912 67.0209 68.7912C67.3239 68.7912 67.626 68.6759 67.8571 68.445C67.8571 68.4449 67.8572 68.4449 67.8572 68.4449L73.9037 62.3983C77.6986 58.6032 77.6986 52.4279 73.9037 48.6329C72.065 46.7941 69.6215 45.782 67.021 45.782C64.4207 45.782 61.977 46.7941 60.1383 48.6329C60.1383 48.6329 60.1383 48.6329 60.1383 48.6329M66.1849 68.445L59.9615 62.5751C56.0689 58.6825 56.0689 52.3489 59.9615 48.4561L60.1383 48.6329M66.1849 68.445L60.1383 62.3983C56.3433 58.6033 56.3433 52.428 60.1383 48.6329M66.1849 68.445L60.1383 48.6329M66.8443 65.7598L67.021 65.9365L67.1978 65.7598L72.2315 60.726C75.1049 57.8526 75.1049 53.1781 72.2315 50.3047C70.8402 48.9133 68.9888 48.1465 67.0208 48.1465C65.0528 48.1465 63.2016 48.9133 61.8102 50.3047C58.9369 53.1781 58.9369 57.8526 61.8102 60.726L61.987 60.5492L61.8103 60.726L66.8443 65.7598Z" fill="white" stroke="#8357AA" stroke-width="0.5"/>
<path d="M62.7234 55.5778C62.7234 57.9473 64.6515 59.8753 67.0209 59.8753C69.3903 59.8753 71.3183 57.9472 71.3185 55.5779L62.7234 55.5778ZM62.7234 55.5778C62.7234 53.2082 64.6516 51.2803 67.0209 51.2803M62.7234 55.5778L67.0209 51.2803M67.0209 51.2803C67.6739 51.2803 68.2033 51.8096 68.2033 52.4626M67.0209 51.2803L68.2033 52.4626M68.2033 52.4626C68.2033 53.1157 67.6739 53.645 67.0209 53.645M68.2033 52.4626L67.0209 53.645M67.0209 53.645C65.9548 53.645 65.088 54.512 65.088 55.5779M67.0209 53.645L65.088 55.5779M65.088 55.5779C65.088 56.6438 65.9549 57.5108 67.0209 57.5108M65.088 55.5779L67.0209 57.5108M67.0209 57.5108C68.0868 57.5108 68.9538 56.6438 68.9538 55.5779M67.0209 57.5108L68.9538 55.5779M68.9538 55.5779C68.9538 54.9248 69.4831 54.3955 70.1361 54.3955M68.9538 55.5779L70.1361 54.3955M70.1361 54.3955C70.7892 54.3955 71.3185 54.9248 71.3185 55.5779L70.1361 54.3955Z" fill="white" stroke="#8357AA" stroke-width="0.5"/>
<path d="M61.276 68.7913H42.414C38.0986 68.7913 34.5872 65.2799 34.5872 60.9645C34.5872 56.6491 38.0986 53.1378 42.414 53.1378H47.5856C50.5977 53.1378 53.0477 50.6877 53.0477 47.6756C53.0477 44.6636 50.5977 42.2135 47.5856 42.2135H28.9052C28.2522 42.2135 27.7229 41.6842 27.7229 41.0311C27.7229 40.3781 28.2522 39.8488 28.9052 39.8488H47.5856C51.901 39.8488 55.4124 43.3601 55.4124 47.6755C55.4124 51.9909 51.901 55.5023 47.5856 55.5023H42.414C39.4019 55.5023 36.9519 57.9523 36.9519 60.9644C36.9519 63.9765 39.4019 66.4265 42.414 66.4265H61.276C61.9291 66.4265 62.4584 66.9558 62.4584 67.6089C62.4583 68.2619 61.9289 68.7913 61.276 68.7913Z" fill="white" stroke="#8357AA" stroke-width="0.5"/>
</svg>
