<svg width="89" height="89" viewBox="0 0 89 89" fill="none" xmlns="http://www.w3.org/2000/svg">
<rect x="1" y="1" width="87" height="87" stroke="white" stroke-width="2"/>
<g clip-path="url(#clip0_75_81)">
<path d="M72.4024 31.6798C70.2561 26.8591 66.8833 22.6888 62.6224 19.5871C58.3615 16.4854 53.3622 14.5612 48.1257 14.0075C47.9992 13.9949 47.8714 14.009 47.7506 14.049C47.6299 14.0889 47.5188 14.1538 47.4246 14.2394C47.3304 14.325 47.2551 14.4294 47.2036 14.546C47.1521 14.6626 47.1256 14.7887 47.1257 14.9161V42.1696C47.1257 42.3297 47.1676 42.487 47.2472 42.6258C47.3268 42.7645 47.4414 42.8799 47.5794 42.9604L71.1162 56.5872C71.2544 56.6679 71.4112 56.7111 71.5712 56.7125C71.6666 56.7121 71.7614 56.6973 71.8524 56.6686C71.9737 56.628 72.0851 56.5624 72.1796 56.4761C72.2741 56.3898 72.3496 56.2846 72.4012 56.1673C74.1144 52.3136 74.9998 48.1415 74.9998 43.9223C74.9998 39.7031 74.1144 35.5311 72.4012 31.6773L72.4024 31.6798ZM71.1387 54.4892L48.9407 41.642V15.9426C53.1774 16.5419 57.2223 18.1006 60.7687 20.5003C64.3152 22.9001 67.2701 26.0779 69.4094 29.7929C71.5487 33.5079 72.8162 37.6625 73.1158 41.9417C73.4155 46.2208 72.7393 50.5122 71.1387 54.4904V54.4892Z" fill="white"/>
<path d="M68.9936 60.2667L42.8756 45.1511V14.9136C42.8764 14.7857 42.8503 14.659 42.7992 14.5419C42.748 14.4247 42.6728 14.3196 42.5785 14.2335C42.4842 14.1473 42.3729 14.082 42.2518 14.0418C42.1307 14.0016 42.0025 13.9873 41.8756 14C37.1769 14.4931 32.6608 16.0918 28.695 18.6659C24.7292 21.2401 21.4258 24.7168 19.0538 28.8131C16.6818 32.9094 15.3082 37.5095 15.045 42.2387C14.7817 46.9679 15.6362 51.6927 17.5388 56.0282C17.5521 56.0757 17.5688 56.1222 17.5888 56.1673C18.4417 58.0824 19.492 59.9028 20.7226 61.5989C20.748 61.6348 20.7764 61.6683 20.8076 61.6992C23.2826 65.0816 26.4351 67.9084 30.0631 69.9984C33.691 72.0883 37.7145 73.3954 41.8756 73.8358C43.9532 74.0549 46.048 74.0549 48.1257 73.8358C52.3099 73.394 56.3547 72.0756 59.9981 69.966C63.6415 67.8565 66.802 65.0029 69.2749 61.5901C69.3495 61.4868 69.4018 61.369 69.4283 61.2443C69.4547 61.1195 69.4549 60.9906 69.4286 60.8658C69.4029 60.7406 69.3508 60.6224 69.2758 60.519C69.2008 60.4157 69.1046 60.3297 68.9936 60.2667V60.2667ZM47.9382 72.0261C43.0189 72.5427 38.0506 71.7517 33.533 69.7326C29.0153 67.7134 25.1076 64.5373 22.2027 60.5236C22.1771 60.4894 22.1496 60.4567 22.1201 60.4259C21.0242 58.9004 20.0825 57.2694 19.3088 55.5569C19.2958 55.5103 19.2795 55.4647 19.2601 55.4203C17.4864 51.424 16.6621 47.0695 16.8519 42.6995C17.0416 38.3295 18.2404 34.0633 20.3538 30.2367C22.4672 26.41 25.4376 23.1273 29.0311 20.6469C32.6247 18.1665 36.7434 16.5562 41.063 15.9425V45.6762C41.0631 45.8363 41.105 45.9936 41.1846 46.1324C41.2642 46.2711 41.3788 46.3865 41.5168 46.467L67.1948 61.3295C64.8646 64.3161 61.959 66.8022 58.6508 68.6398C55.3425 70.4774 51.6994 71.629 47.9382 72.0261Z" fill="white"/>
<path d="M40.103 55.7951C40.1037 56.0368 40.1998 56.2683 40.3704 56.4391C40.5409 56.6098 40.772 56.7059 41.013 56.7062H49.952C50.1933 56.7062 50.4248 56.6101 50.5955 56.439C50.7661 56.2679 50.862 56.0358 50.862 55.7938C50.862 55.5519 50.7661 55.3198 50.5955 55.1487C50.4248 54.9776 50.1933 54.8815 49.952 54.8815H41.013C40.8934 54.8815 40.775 54.9051 40.6645 54.951C40.554 54.997 40.4536 55.0643 40.3691 55.1491C40.2846 55.234 40.2176 55.3347 40.1719 55.4456C40.1263 55.5564 40.1029 55.6752 40.103 55.7951Z" fill="white"/>
<path d="M30.8603 56.7049H36.1629C36.4043 56.7049 36.6358 56.6088 36.8064 56.4377C36.9771 56.2665 37.073 56.0345 37.073 55.7925C37.073 55.5505 36.9771 55.3185 36.8064 55.1474C36.6358 54.9763 36.4043 54.8801 36.1629 54.8801H30.8603C30.619 54.8801 30.3875 54.9763 30.2169 55.1474C30.0462 55.3185 29.9503 55.5505 29.9503 55.7925C29.9503 56.0345 30.0462 56.2665 30.2169 56.4377C30.3875 56.6088 30.619 56.7049 30.8603 56.7049V56.7049Z" fill="white"/>
<path d="M49.9507 60.9597H30.8603C30.6193 60.9597 30.3882 61.0557 30.2177 61.2266C30.0473 61.3974 29.9516 61.6292 29.9516 61.8708C29.9516 62.1125 30.0473 62.3442 30.2177 62.5151C30.3882 62.686 30.6193 62.782 30.8603 62.782H49.9507C50.1918 62.782 50.4229 62.686 50.5933 62.5151C50.7638 62.3442 50.8595 62.1125 50.8595 61.8708C50.8595 61.6292 50.7638 61.3974 50.5933 61.2266C50.4229 61.0557 50.1918 60.9597 49.9507 60.9597V60.9597Z" fill="white"/>
<path d="M49.9507 67.0369H41.7706C41.5295 67.0369 41.2984 67.1329 41.128 67.3037C40.9575 67.4746 40.8618 67.7063 40.8618 67.948C40.8618 68.1896 40.9575 68.4214 41.128 68.5922C41.2984 68.7631 41.5295 68.8591 41.7706 68.8591H49.9507C50.1917 68.8591 50.4229 68.7631 50.5933 68.5922C50.7638 68.4214 50.8595 68.1896 50.8595 67.948C50.8595 67.7063 50.7638 67.4746 50.5933 67.3037C50.4229 67.1329 50.1917 67.0369 49.9507 67.0369V67.0369Z" fill="white"/>
<path d="M65.1535 28.3009H62.2785C62.159 28.3009 62.0406 28.3245 61.9302 28.3704C61.8198 28.4162 61.7195 28.4834 61.635 28.5681C61.5505 28.6529 61.4835 28.7534 61.4377 28.8641C61.392 28.9748 61.3685 29.0935 61.3685 29.2133C61.3685 29.3331 61.392 29.4517 61.4377 29.5624C61.4835 29.6731 61.5505 29.7737 61.635 29.8584C61.7195 29.9431 61.8198 30.0104 61.9302 30.0562C62.0406 30.1021 62.159 30.1257 62.2785 30.1257H65.1535C65.2731 30.1257 65.3914 30.1021 65.5018 30.0562C65.6122 30.0104 65.7125 29.9431 65.797 29.8584C65.8815 29.7737 65.9486 29.6731 65.9943 29.5624C66.04 29.4517 66.0636 29.3331 66.0636 29.2133C66.0636 29.0935 66.04 28.9748 65.9943 28.8641C65.9486 28.7534 65.8815 28.6529 65.797 28.5681C65.7125 28.4834 65.6122 28.4162 65.5018 28.3704C65.3914 28.3245 65.2731 28.3009 65.1535 28.3009V28.3009Z" fill="white"/>
<path d="M53.3358 30.1244H57.4259C57.6672 30.1244 57.8987 30.0283 58.0694 29.8572C58.24 29.6861 58.3359 29.454 58.3359 29.2121C58.3359 28.9701 58.24 28.738 58.0694 28.5669C57.8987 28.3958 57.6672 28.2997 57.4259 28.2997H53.3358C53.0944 28.2997 52.863 28.3958 52.6923 28.5669C52.5217 28.738 52.4258 28.9701 52.4258 29.2121C52.4258 29.454 52.5217 29.6861 52.6923 29.8572C52.863 30.0283 53.0944 30.1244 53.3358 30.1244Z" fill="white"/>
<path d="M65.1535 34.3793H53.3358C53.0948 34.3793 52.8636 34.4753 52.6932 34.6461C52.5228 34.817 52.427 35.0488 52.427 35.2904C52.427 35.532 52.5228 35.7638 52.6932 35.9347C52.8636 36.1055 53.0948 36.2015 53.3358 36.2015H65.1535C65.3946 36.2015 65.6257 36.1055 65.7961 35.9347C65.9666 35.7638 66.0623 35.532 66.0623 35.2904C66.0623 35.0488 65.9666 34.817 65.7961 34.6461C65.6257 34.4753 65.3946 34.3793 65.1535 34.3793Z" fill="white"/>
<path d="M65.1535 40.4551H61.821C61.5796 40.4551 61.3482 40.5512 61.1775 40.7223C61.0068 40.8934 60.911 41.1255 60.911 41.3675C60.911 41.6094 61.0068 41.8415 61.1775 42.0126C61.3482 42.1837 61.5796 42.2798 61.821 42.2798H65.1535C65.3949 42.2798 65.6264 42.1837 65.797 42.0126C65.9677 41.8415 66.0636 41.6094 66.0636 41.3675C66.0636 41.1255 65.9677 40.8934 65.797 40.7223C65.6264 40.5512 65.3949 40.4551 65.1535 40.4551V40.4551Z" fill="white"/>
</g>
<defs>
<clipPath id="clip0_75_81">
<rect width="60" height="60" fill="white" transform="translate(15 14)"/>
</clipPath>
</defs>
</svg>
