<svg width="89" height="89" viewBox="0 0 89 89" fill="none" xmlns="http://www.w3.org/2000/svg">
<g clip-path="url(#clip0_75_79)">
<path d="M74.89 72.66L53.1817 32.4575V14.9088C53.181 14.6677 53.0849 14.4368 52.9144 14.2665C52.7438 14.0961 52.5128 14.0003 52.2717 14H35.8333C35.6744 13.9997 35.5181 14.0412 35.3803 14.1204C35.2425 14.1996 35.128 14.3137 35.0483 14.4513C34.9691 14.5896 34.9274 14.7462 34.9274 14.9056C34.9274 15.065 34.9691 15.2217 35.0483 15.36L37.2145 19.1513L35.0446 22.9425C34.9655 23.0807 34.9242 23.2372 34.9246 23.3964C34.9251 23.5557 34.9674 23.7119 35.0473 23.8497C35.1271 23.9874 35.2418 24.1017 35.3797 24.1812C35.5177 24.2607 35.6741 24.3025 35.8333 24.3025H51.3642V32.4563L42.3019 49.2388C42.1874 49.4509 42.1618 49.6999 42.2309 49.9309C42.2999 50.162 42.4579 50.3561 42.67 50.4706C42.8822 50.5852 43.1312 50.6107 43.3622 50.5417C43.5932 50.4727 43.7874 50.3147 43.9019 50.1025L45.7344 46.7088L51.8755 49.7088C51.9994 49.7696 52.1356 49.8013 52.2736 49.8013C52.4116 49.8013 52.5478 49.7696 52.6717 49.7088L58.8128 46.7088L72.5626 72.18H55.2304C54.9891 72.18 54.7576 72.2759 54.587 72.4465C54.4163 72.6172 54.3204 72.8487 54.3204 73.09C54.3204 73.3314 54.4163 73.5628 54.587 73.7335C54.7576 73.9041 54.9891 74 55.2304 74H74.0913C74.2484 73.9998 74.4029 73.9588 74.5395 73.8811C74.6761 73.8034 74.7902 73.6916 74.8707 73.5566C74.9512 73.4215 74.9953 73.268 74.9986 73.1108C75.002 72.9537 74.9646 72.7984 74.89 72.66ZM37.3995 22.485L39.047 19.6038C39.125 19.4659 39.166 19.3102 39.166 19.1519C39.166 18.9935 39.125 18.8378 39.047 18.7L37.3995 15.825H51.363V22.4838H37.3995V22.485ZM52.2742 47.8825L46.6006 45.1088L52.2742 34.6013L57.9491 45.1088L52.2742 47.8825Z" fill="white"/>
<path d="M33.9459 40.7413C33.8683 40.5965 33.753 40.4755 33.6121 40.3911C33.4712 40.3068 33.3101 40.2622 33.1459 40.2622C32.9817 40.2622 32.8205 40.3068 32.6796 40.3911C32.5388 40.4755 32.4234 40.5965 32.3459 40.7413L15.1087 72.66C15.0344 72.7986 14.9973 72.9541 15.001 73.1113C15.0047 73.2685 15.049 73.4221 15.1297 73.557C15.2104 73.692 15.3247 73.8037 15.4615 73.8814C15.5982 73.959 15.7527 73.9999 15.91 74H50.3818C50.539 73.9999 50.6935 73.959 50.8303 73.8814C50.967 73.8037 51.0813 73.692 51.162 73.557C51.2427 73.4221 51.2871 73.2685 51.2907 73.1113C51.2944 72.9541 51.2573 72.7986 51.183 72.66L33.9459 40.7413ZM33.1459 43.085L37.2583 50.7L33.1459 52.7088L29.0335 50.7L33.1459 43.085ZM17.4324 72.1813L28.1685 52.3063L32.7496 54.5375C32.8738 54.5983 33.0101 54.63 33.1484 54.63C33.2866 54.63 33.423 54.5983 33.5471 54.5375L38.1245 52.3013L48.8605 72.1763L17.4324 72.1813Z" fill="white"/>
</g>
<rect x="1" y="1" width="87" height="87" stroke="white" stroke-width="2"/>
<defs>
<clipPath id="clip0_75_79">
<rect width="60" height="60" fill="white" transform="translate(15 14)"/>
</clipPath>
</defs>
</svg>
