<svg width="89" height="89" viewBox="0 0 89 89" fill="none" xmlns="http://www.w3.org/2000/svg">
<rect x="1" y="1" width="87" height="87" stroke="white" stroke-width="2"/>
<path d="M54.586 32.564C54.4077 32.4204 54.1801 32.3524 53.9523 32.3746C53.7244 32.3968 53.5143 32.5075 53.367 32.6829C53.2198 32.8582 53.1472 33.0843 53.1648 33.3126C53.1823 33.5409 53.2887 33.7532 53.461 33.904C54.938 35.1393 56.126 36.6836 56.9411 38.428C57.7563 40.1725 58.1786 42.0745 58.1785 44C58.1785 44.2321 58.2707 44.4546 58.4348 44.6187C58.5989 44.7828 58.8214 44.875 59.0535 44.875C59.2856 44.875 59.5081 44.7828 59.6722 44.6187C59.8363 44.4546 59.9285 44.2321 59.9285 44C59.9293 41.819 59.4512 39.6644 58.528 37.6883C57.6049 35.7123 56.2592 33.963 54.586 32.564Z" fill="white"/>
<path d="M45 32.0715C42.6407 32.0715 40.3345 32.7711 38.3729 34.0818C36.4112 35.3926 34.8823 37.2555 33.9795 39.4352C33.0766 41.6148 32.8404 44.0133 33.3007 46.3272C33.7609 48.6411 34.897 50.7665 36.5653 52.4348C38.2335 54.103 40.3589 55.2391 42.6728 55.6993C44.9867 56.1596 47.3852 55.9234 49.5648 55.0205C51.7445 54.1177 53.6074 52.5888 54.9182 50.6272C56.2289 48.6655 56.9285 46.3593 56.9285 44C56.9249 40.8375 55.667 37.8055 53.4308 35.5693C51.1945 33.333 48.1625 32.0751 45 32.0715ZM45 54.179C42.9869 54.179 41.019 53.5821 39.3452 52.4637C37.6713 51.3453 36.3667 49.7556 35.5963 47.8958C34.8259 46.0359 34.6243 43.9894 35.017 42.015C35.4097 40.0406 36.3791 38.2269 37.8025 36.8034C39.226 35.3799 41.0395 34.4105 43.0139 34.0177C44.9883 33.6249 47.0349 33.8264 48.8948 34.5967C50.7547 35.367 52.3444 36.6715 53.4628 38.3453C54.5813 40.0191 55.1784 41.9869 55.1785 44C55.1754 46.6986 54.1021 49.2858 52.1939 51.194C50.2857 53.1021 47.6985 54.1755 45 54.1785V54.179Z" fill="white"/>
<path d="M74.275 39.441C74.2429 39.2346 74.1381 39.0465 73.9795 38.9106C73.8208 38.7747 73.6189 38.7 73.41 38.7H65.09C64.6144 36.8909 63.8945 35.1551 62.95 33.5405L68.8315 27.6585C68.9792 27.5109 69.0693 27.3154 69.0855 27.1072C69.1016 26.8991 69.0427 26.692 68.9195 26.5235C67.1172 24.0554 64.9437 21.8813 62.476 20.0785C62.3073 19.9556 62.1003 19.897 61.8923 19.9131C61.6842 19.9293 61.4887 20.0191 61.341 20.1665L55.4595 26.05C53.8449 25.1053 52.1091 24.3852 50.3 23.9095V15.59C50.3 15.3811 50.2253 15.1791 50.0894 15.0205C49.9535 14.8619 49.7654 14.7571 49.559 14.725C46.5374 14.2601 43.4626 14.2601 40.441 14.725C40.2346 14.7571 40.0465 14.8619 39.9106 15.0205C39.7747 15.1791 39.7 15.3811 39.7 15.59V23.91C37.8909 24.3855 36.1551 25.1055 34.5405 26.05L28.6585 20.1665C28.5109 20.0189 28.3154 19.9289 28.1072 19.9128C27.8991 19.8967 27.6921 19.9554 27.5235 20.0785C25.0553 21.8813 22.8812 24.0556 21.0785 26.524C20.9553 26.6925 20.8964 26.8996 20.9125 27.1077C20.9287 27.3159 21.0187 27.5114 21.1665 27.659L27.05 33.5405C26.1054 35.155 25.3852 36.8909 24.9095 38.7H16.59C16.3811 38.7 16.1791 38.7747 16.0205 38.9106C15.8619 39.0465 15.7571 39.2346 15.725 39.441C15.2582 42.4624 15.2582 45.5375 15.725 48.559C15.7571 48.7654 15.8619 48.9535 16.0205 49.0894C16.1791 49.2252 16.3811 49.2999 16.59 49.3H24.91C25.3856 51.109 26.1055 52.8449 27.05 54.4595L21.1665 60.3415C21.0187 60.489 20.9287 60.6845 20.9125 60.8927C20.8964 61.1008 20.9553 61.3079 21.0785 61.4765C22.8813 63.9449 25.0556 66.1191 27.524 67.922C27.6926 68.0451 27.8996 68.1039 28.1078 68.0878C28.3159 68.0716 28.5114 67.9816 28.659 67.834L34.5405 61.95C36.1551 62.8946 37.8909 63.6147 39.7 64.0905V72.4105C39.7001 72.6192 39.7748 72.821 39.9106 72.9795C40.0463 73.138 40.2343 73.2428 40.4405 73.275C43.4619 73.7417 46.5371 73.7417 49.5585 73.275C49.765 73.243 49.9532 73.1382 50.0892 72.9796C50.2252 72.8209 50.2999 72.6189 50.3 72.41V64.09C52.1091 63.6144 53.8449 62.8944 55.4595 61.95L61.3415 67.8315C61.4891 67.979 61.6846 68.069 61.8927 68.0851C62.1008 68.1013 62.3079 68.0425 62.4765 67.9195C64.9449 66.1166 67.1192 63.9424 68.922 61.474C69.0452 61.3054 69.1041 61.0984 69.088 60.8902C69.0718 60.682 68.9817 60.4865 68.834 60.339L62.95 54.4595C63.8946 52.8449 64.6148 51.1091 65.0905 49.3H73.4105C73.6192 49.2998 73.821 49.2252 73.9795 49.0894C74.138 48.9536 74.2428 48.7657 74.275 48.5595C74.7418 45.5381 74.7418 42.4629 74.275 39.4415V39.441ZM72.65 47.55H64.404C64.2056 47.55 64.0131 47.6174 63.8581 47.7411C63.703 47.8648 63.5946 48.0375 63.5505 48.231C63.0773 50.3206 62.2511 52.3142 61.1075 54.126C61.0017 54.2939 60.9561 54.4928 60.9782 54.69C61.0003 54.8872 61.0887 55.0711 61.229 55.2115L67.059 61.0415C65.6074 62.9212 63.9212 64.6074 62.0415 66.059L56.2115 60.229C56.0711 60.0888 55.8872 60.0004 55.69 59.9783C55.4928 59.9562 55.2939 60.0018 55.126 60.1075C53.3142 61.2511 51.3206 62.0773 49.231 62.5505C49.0376 62.5945 48.8649 62.703 48.7411 62.858C48.6174 63.0131 48.55 63.2056 48.55 63.404V71.65C46.1927 71.9478 43.8073 71.9478 41.45 71.65V63.404C41.45 63.2056 41.3826 63.0131 41.2588 62.858C41.1351 62.703 40.9624 62.5945 40.769 62.5505C38.6794 62.0773 36.6858 61.2511 34.874 60.1075C34.7061 60.0015 34.5072 59.9558 34.3099 59.9779C34.1127 60 33.9288 60.0885 33.7885 60.229L27.9585 66.059C26.0787 64.6074 24.3925 62.9212 22.941 61.0415L28.771 55.2115C28.9113 55.0711 28.9997 54.8872 29.0218 54.69C29.0439 54.4928 28.9983 54.2939 28.8925 54.126C27.749 52.3142 26.923 50.3206 26.45 48.231C26.4059 48.0375 26.2974 47.8647 26.1422 47.741C25.9871 47.6172 25.7945 47.5499 25.596 47.55H17.35C17.0505 45.1928 17.0505 42.8072 17.35 40.45H25.596C25.7945 40.45 25.9871 40.3827 26.1422 40.259C26.2974 40.1352 26.4059 39.9625 26.45 39.769C26.9232 37.6793 27.7493 35.6857 28.893 33.874C28.9988 33.706 29.0444 33.5072 29.0223 33.3099C29.0002 33.1127 28.9118 32.9288 28.7715 32.7885L22.9415 26.9585C24.3929 25.0787 26.0789 23.3925 27.9585 21.941L33.7885 27.771C33.9288 27.9113 34.1127 27.9998 34.31 28.0219C34.5072 28.044 34.7061 27.9983 34.874 27.8925C36.6858 26.749 38.6794 25.923 40.769 25.45C40.9625 25.4059 41.1353 25.2974 41.259 25.1422C41.3827 24.987 41.4501 24.7944 41.45 24.596V16.35C43.8073 16.0521 46.1927 16.0521 48.55 16.35V24.596C48.5499 24.7944 48.6172 24.987 48.741 25.1422C48.8647 25.2974 49.0375 25.4059 49.231 25.45C51.3206 25.9231 53.3142 26.7493 55.126 27.893C55.2939 27.9986 55.4928 28.0442 55.69 28.0221C55.8872 28 56.0711 27.9117 56.2115 27.7715L62.0415 21.9415C63.9212 23.393 65.6074 25.0792 67.059 26.959L61.229 32.789C61.0887 32.9293 61.0003 33.1132 60.9782 33.3104C60.9561 33.5077 61.0017 33.7065 61.1075 33.8745C62.2511 35.6862 63.0773 37.6798 63.5505 39.7695C63.5946 39.9629 63.703 40.1356 63.8581 40.2593C64.0131 40.383 64.2056 40.4504 64.404 40.4505H72.65C72.9495 42.8077 72.9495 45.1933 72.65 47.5505V47.55Z" fill="white"/>
</svg>
